# xmcd
#
# Track frame offsets:
#  150
#  14648
#  28383
#  45477
#  62494
#  79044
#  95759
#  114680
#  125944
#  139021
#  155618
#  168661
#
# Disc length: 2454 seconds
#
# Revision: 1
# Processed by: cddbd v1.5.1PL0 Copyright (c) Steve Scherf et al.
# Submitted via: AltoMP3_Maker 3.0
#
DISCID=ac09940c
DTITLE=Henny Weijmans - Het Beste van Henny Weijmans
DYEAR=1900
DGENRE=
TTITLE0=Zondag
TTITLE1=Donna Carmella Gonzales
TTITLE2=Vrijgezel
TTITLE3=Alles wat ademt
TTITLE4=Hopeloos
TTITLE5=Waarom fluister ik jouw naam
TTITLE6=Het werd zomer
TTITLE7=Zuster Ursela
TTITLE8=Ik ben zo eenzaam zonder jou
TTITLE9=Hemelsblauw
TTITLE10=Huisje Monmartre
TTITLE11=Ik weet niet hoe
EXTD=
EXTT0=
EXTT1=
EXTT2=
EXTT3=
EXTT4=
EXTT5=
EXTT6=
EXTT7=
EXTT8=
EXTT9=
EXTT10=
EXTT11=
PLAYORDER=
